<svg width="40" height="47" viewBox="0 0 40 47" fill="none" xmlns="http://www.w3.org/2000/svg">
<path d="M35.9231 36.9098V9.92239L39.7784 12.1255V34.7068L35.9231 36.9098Z" fill="#292E32" stroke="#292E32" stroke-width="0.220306"/>
<path d="M15.3243 8.4904L11.469 6.17719L20.2812 1L31.5168 7.16856V21.4884H27.2209V9.48177L20.2812 5.62642L15.3243 8.4904Z" fill="#00DDB2" stroke="#00DCB2" stroke-width="0.220306"/>
<path d="M9.48633 29.7499V25.3438L31.5169 25.6743L31.2966 39.5535L20.7219 45.9424L9.48633 39.5535V33.0545H13.6721V37.1302L20.7219 41.0957L27.4412 37.1302V29.7499H9.48633Z" fill="#00DDB2" stroke="#00DCB2" stroke-width="0.220306"/>
<path d="M1.00464 34.5966L5.08029 37.02V14.3285L7.28335 13.1168L9.37626 14.3285V25.1235H13.7824V16.7519L20.3915 20.8275L23.3657 19.2854V14.3285L20.3915 16.2011L6.84274 8.71069L1.00464 12.1254V34.5966Z" fill="#292E32" stroke="#292E32" stroke-width="0.220306"/>
</svg>
